<?xml version="1.0" encoding="UTF-8" standalone="no"?>
<!DOCTYPE svg PUBLIC "-//W3C//DTD SVG 1.1//EN" "http://www.w3.org/Graphics/SVG/1.1/DTD/svg11.dtd">
<svg version="1.1" xmlns="http://www.w3.org/2000/svg" xmlns:xlink="http://www.w3.org/1999/xlink" preserveAspectRatio="xMidYMid meet" viewBox="0 0 640 640" width="640" height="640"><defs><path d="M320 0C356.92 0 386.84 29.93 386.84 66.84C386.84 181.47 386.84 458.53 386.84 573.16C386.84 610.07 356.92 640 320 640C306.63 640 333.37 640 320 640C283.08 640 253.16 610.07 253.16 573.16C253.16 458.53 253.16 181.47 253.16 66.84C253.16 29.93 283.08 0 320 0C333.37 0 306.63 0 320 0Z" id="a67L39OtNS"></path><path d="M640 320C640 356.92 610.07 386.84 573.16 386.84C458.53 386.84 181.47 386.84 66.84 386.84C29.93 386.84 0 356.92 0 320C0 306.63 0 333.37 0 320C0 283.08 29.93 253.16 66.84 253.16C181.47 253.16 458.53 253.16 573.16 253.16C610.07 253.16 640 283.08 640 320C640 333.37 640 306.63 640 320Z" id="bTm2OhhTj"></path></defs><g><g><g><use xlink:href="#a67L39OtNS" opacity="1" fill="#656565" fill-opacity="1"></use></g><g><use xlink:href="#bTm2OhhTj" opacity="1" fill="#656565" fill-opacity="1"></use></g></g></g></svg>