<?xml version="1.0" encoding="UTF-8" standalone="no"?>
<!DOCTYPE svg PUBLIC "-//W3C//DTD SVG 1.1//EN" "http://www.w3.org/Graphics/SVG/1.1/DTD/svg11.dtd">
<svg version="1.1" xmlns="http://www.w3.org/2000/svg" xmlns:xlink="http://www.w3.org/1999/xlink" preserveAspectRatio="xMidYMid meet" viewBox="0 0 640 640" width="640" height="640"><defs><path d="M550.52 0.33L554.45 0.73L558.33 1.28L562.17 1.98L565.95 2.84L569.67 3.83L573.33 4.97L576.93 6.25L580.46 7.66L583.93 9.21L587.32 10.88L590.63 12.68L593.87 14.61L597.02 16.65L600.09 18.81L603.07 21.08L605.96 23.47L608.75 25.96L611.45 28.55L614.04 31.25L616.53 34.04L618.92 36.93L621.19 39.91L623.35 42.98L625.39 46.13L627.32 49.37L629.12 52.68L630.79 56.07L632.34 59.54L633.75 63.07L635.03 66.67L636.17 70.33L637.17 74.06L638.02 77.84L638.72 81.67L639.28 85.55L639.68 89.49L639.92 93.46L640 97.48L640 544.02L639.92 547.97L639.68 551.89L639.29 555.76L638.74 559.59L638.05 563.36L637.21 567.08L636.23 570.75L635.1 574.36L633.85 577.9L632.46 581.38L630.93 584.79L629.28 588.13L627.51 591.39L625.62 594.58L623.61 597.68L621.48 600.7L619.24 603.64L616.89 606.48L614.44 609.23L611.88 611.89L609.23 614.44L606.48 616.9L603.63 619.24L600.7 621.48L597.68 623.61L594.57 625.62L591.39 627.52L588.12 629.29L584.78 630.94L581.37 632.46L577.89 633.85L574.35 635.11L570.74 636.23L567.08 637.21L563.36 638.05L559.58 638.75L555.75 639.29L551.88 639.69L547.97 639.92L544.01 640L91.52 640L87.75 639.93L84.01 639.7L80.32 639.33L76.68 638.81L73.08 638.14L69.53 637.34L66.03 636.41L62.59 635.34L59.21 634.14L55.9 632.81L52.64 631.36L49.46 629.79L46.35 628.1L43.31 626.29L40.35 624.37L37.47 622.35L34.67 620.21L31.96 617.97L29.34 615.63L26.8 613.2L24.37 610.67L22.03 608.04L19.79 605.33L17.66 602.53L15.63 599.65L13.71 596.69L11.9 593.65L10.21 590.54L8.64 587.36L7.19 584.11L5.86 580.79L4.66 577.41L3.59 573.97L2.66 570.48L1.86 566.93L1.2 563.33L0.68 559.68L0.3 555.99L0.07 552.25L0 548.48L0 88.55L0.07 84.9L0.29 81.29L0.65 77.71L1.16 74.19L1.8 70.7L2.57 67.27L3.48 63.89L4.51 60.56L5.67 57.29L6.96 54.08L8.36 50.94L9.88 47.86L11.52 44.85L13.26 41.91L15.12 39.04L17.08 36.26L19.15 33.55L21.31 30.92L23.58 28.39L25.93 25.94L28.38 23.58L30.92 21.32L33.54 19.15L36.25 17.09L39.04 15.13L41.9 13.27L44.84 11.52L47.85 9.89L50.93 8.37L54.08 6.96L57.29 5.68L60.56 4.52L63.88 3.48L67.27 2.58L70.7 1.8L74.18 1.16L77.71 0.66L81.28 0.3L84.89 0.08L88.54 0L542.52 0L546.54 0.08L550.52 0.33ZM114.29 153.87L111.9 154.02L109.54 154.26L107.2 154.59L104.9 155.01L102.63 155.52L100.39 156.12L98.19 156.81L96.03 157.58L93.9 158.43L91.82 159.35L89.78 160.36L87.79 161.44L85.85 162.6L83.95 163.83L82.11 165.13L80.32 166.49L78.58 167.92L76.9 169.42L75.28 170.98L73.72 172.6L72.22 174.28L70.79 176.02L69.42 177.81L68.13 179.65L66.9 181.55L65.74 183.49L64.66 185.48L63.65 187.52L62.73 189.6L61.88 191.73L61.11 193.89L60.42 196.09L59.82 198.33L59.31 200.6L58.89 202.9L58.56 205.24L58.32 207.6L58.17 209.99L58.12 212.41L58.12 516.72L58.17 519.22L58.32 521.69L58.57 524.13L58.91 526.54L59.35 528.92L59.88 531.27L60.5 533.59L61.21 535.86L62 538.1L62.88 540.29L63.84 542.44L64.88 544.55L66 546.61L67.19 548.62L68.46 550.58L69.8 552.48L71.22 554.34L72.7 556.13L74.25 557.87L75.86 559.54L77.53 561.15L79.27 562.7L81.06 564.18L82.91 565.59L84.82 566.93L86.78 568.2L88.79 569.4L90.85 570.52L92.95 571.56L95.11 572.52L97.3 573.4L99.54 574.19L101.81 574.9L104.12 575.52L106.47 576.05L108.85 576.48L111.27 576.83L113.71 577.08L116.18 577.23L118.68 577.28L518.37 577.28L520.99 577.22L523.58 577.07L526.14 576.81L528.67 576.45L531.17 575.99L533.63 575.43L536.06 574.78L538.44 574.04L540.79 573.21L543.09 572.29L545.35 571.28L547.56 570.19L549.71 569.01L551.82 567.76L553.88 566.43L555.88 565.02L557.82 563.54L559.7 561.99L561.52 560.37L563.28 558.67L564.97 556.92L566.59 555.1L568.14 553.22L569.62 551.27L571.03 549.28L572.36 547.22L573.62 545.11L574.79 542.95L575.88 540.74L576.89 538.49L577.81 536.19L578.64 533.84L579.38 531.45L580.03 529.03L580.59 526.57L581.05 524.07L581.41 521.54L581.67 518.97L581.83 516.38L581.88 513.77L581.88 218.32L581.82 215.66L581.66 213.03L581.4 210.43L581.03 207.86L580.57 205.32L580 202.82L579.34 200.36L578.59 197.93L577.75 195.55L576.81 193.21L575.79 190.92L574.68 188.68L573.49 186.48L572.22 184.34L570.86 182.26L569.43 180.23L567.93 178.26L566.35 176.34L564.71 174.5L562.99 172.71L561.2 171L559.36 169.35L557.45 167.77L555.47 166.27L553.44 164.84L551.36 163.48L549.22 162.21L547.02 161.02L544.78 159.91L542.49 158.89L540.15 157.96L537.77 157.11L535.35 156.36L532.88 155.7L530.38 155.13L527.84 154.67L525.27 154.3L522.67 154.04L520.04 153.88L517.38 153.82L116.71 153.82L114.29 153.87Z" id="ctdYGIkwm"></path></defs><g><g><g><use xlink:href="#ctdYGIkwm" opacity="1" fill="#656565" fill-opacity="1"></use></g></g></g></svg>