<?xml version="1.0" encoding="UTF-8" standalone="no"?>
<!DOCTYPE svg PUBLIC "-//W3C//DTD SVG 1.1//EN" "http://www.w3.org/Graphics/SVG/1.1/DTD/svg11.dtd">
<svg version="1.1" xmlns="http://www.w3.org/2000/svg" xmlns:xlink="http://www.w3.org/1999/xlink" preserveAspectRatio="xMidYMid meet" viewBox="0 0 640 640" width="640" height="640"><defs><path d="M593.32 154.66L594.18 154.74L595.03 154.85L595.88 155L596.72 155.18L597.55 155.39L598.37 155.63L599.19 155.9L599.99 156.2L600.79 156.54L601.57 156.9L602.34 157.3L603.09 157.73L603.83 158.18L604.55 158.67L605.25 159.18L605.94 159.73L606.61 160.3L607.25 160.91L607.88 161.54L608.48 162.2L609.06 162.89L609.62 163.6L610.15 164.35L610.65 165.12L634.35 203.06L634.83 203.86L635.26 204.66L635.66 205.47L636.03 206.3L636.36 207.13L636.65 207.97L636.91 208.81L637.13 209.67L637.32 210.52L637.47 211.38L637.59 212.24L637.68 213.11L637.73 213.97L637.75 214.83L637.74 215.7L637.69 216.56L637.61 217.41L637.5 218.26L637.35 219.11L637.18 219.95L636.97 220.78L636.73 221.61L636.45 222.42L636.15 223.23L635.81 224.02L635.45 224.8L635.05 225.57L634.63 226.32L634.17 227.06L633.68 227.78L633.17 228.49L632.62 229.17L632.05 229.84L631.45 230.49L630.81 231.11L630.15 231.72L629.46 232.3L628.75 232.85L628 233.38L627.23 233.89L230.01 482L229.22 482.47L228.42 482.91L227.61 483.31L226.78 483.67L225.95 484L225.11 484.3L224.26 484.55L223.41 484.78L222.56 484.97L221.7 485.12L220.84 485.24L219.97 485.33L219.11 485.38L218.25 485.4L217.38 485.39L216.52 485.34L215.9 485.28L215.33 485.33L214.48 485.38L213.62 485.4L212.76 485.38L211.9 485.33L211.05 485.25L210.2 485.14L209.35 484.99L208.5 484.81L207.67 484.6L206.84 484.35L206.01 484.07L205.2 483.76L204.4 483.42L203.61 483.04L202.83 482.63L202.06 482.19L201.31 481.71L200.57 481.21L199.85 480.67L199.15 480.09L198.47 479.49L197.8 478.85L8.8 289.85L8.16 289.18L7.55 288.5L6.98 287.79L6.44 287.07L5.93 286.34L5.46 285.58L5.02 284.82L4.61 284.04L4.23 283.25L3.89 282.45L3.57 281.63L3.3 280.81L3.05 279.98L2.84 279.14L2.66 278.3L2.51 277.45L2.39 276.6L2.31 275.74L2.26 274.89L2.25 274.03L2.26 273.17L2.31 272.31L2.39 271.46L2.51 270.6L2.66 269.76L2.84 268.91L3.05 268.08L3.3 267.25L3.57 266.42L3.89 265.61L4.23 264.81L4.61 264.02L5.02 263.24L5.46 262.47L5.93 261.72L6.44 260.98L6.98 260.26L7.55 259.56L8.16 258.88L8.8 258.21L40.43 226.58L41.1 225.94L41.78 225.33L42.49 224.76L43.21 224.22L43.94 223.71L44.69 223.24L45.46 222.79L46.24 222.38L47.03 222.01L47.83 221.66L48.65 221.35L49.47 221.07L50.3 220.83L51.13 220.62L51.98 220.44L52.83 220.29L53.68 220.17L54.53 220.09L55.39 220.04L56.25 220.03L57.11 220.04L57.97 220.09L58.82 220.17L59.67 220.29L60.52 220.44L61.37 220.62L62.2 220.83L63.03 221.07L63.85 221.35L64.67 221.66L65.47 222.01L66.26 222.38L67.04 222.79L67.81 223.24L68.56 223.71L69.29 224.22L70.01 224.76L70.72 225.33L71.4 225.94L72.07 226.58L225.08 379.59L579.83 158L580.62 157.53L581.43 157.09L582.24 156.69L583.06 156.33L583.89 156L584.73 155.7L585.58 155.45L586.43 155.22L587.29 155.03L588.15 154.88L589.01 154.76L589.87 154.67L590.74 154.62L591.6 154.6L592.46 154.61L593.32 154.66Z" id="afVQT4UpP"></path></defs><g><g><g><use xlink:href="#afVQT4UpP" opacity="1" fill="#4285f4" fill-opacity="1"></use></g></g></g></svg>