<?xml version="1.0" encoding="UTF-8" standalone="no"?>
<!DOCTYPE svg PUBLIC "-//W3C//DTD SVG 1.1//EN" "http://www.w3.org/Graphics/SVG/1.1/DTD/svg11.dtd">
<svg version="1.1" xmlns="http://www.w3.org/2000/svg" xmlns:xlink="http://www.w3.org/1999/xlink" preserveAspectRatio="xMidYMid meet" viewBox="0 0 640 640" width="640" height="640"><defs><path d="M460.06 186.91L460.87 186.99L461.67 187.1L462.45 187.25L463.23 187.42L463.99 187.63L464.74 187.86L465.48 188.12L466.21 188.41L466.92 188.73L467.61 189.07L468.29 189.44L468.96 189.84L469.6 190.26L470.23 190.7L470.84 191.17L471.44 191.66L472.01 192.17L472.56 192.7L473.1 193.25L473.61 193.83L474.1 194.42L474.56 195.03L475.01 195.66L475.42 196.31L475.82 196.97L476.19 197.65L476.53 198.35L476.85 199.06L477.14 199.78L477.4 200.52L477.64 201.27L477.84 202.04L478.01 202.81L478.16 203.6L478.27 204.4L478.35 205.2L478.4 206.02L478.42 206.84L478.42 490.96L478.36 493.88L478.19 496.76L477.9 499.6L477.5 502.42L476.99 505.2L476.37 507.93L475.65 510.63L474.82 513.28L473.9 515.89L472.87 518.45L471.75 520.96L470.54 523.42L469.23 525.82L467.84 528.16L466.36 530.45L464.8 532.67L463.15 534.83L461.42 536.92L459.62 538.94L457.74 540.9L455.79 542.78L453.76 544.58L451.67 546.31L449.51 547.95L447.29 549.52L445 551L442.66 552.39L440.26 553.7L437.8 554.91L435.29 556.03L432.73 557.05L430.13 557.98L427.47 558.8L424.78 559.53L422.04 560.14L419.26 560.65L416.45 561.06L413.6 561.34L410.72 561.52L407.81 561.58L226.19 561.58L223.31 561.52L220.46 561.35L217.64 561.06L214.85 560.66L212.1 560.16L209.39 559.55L206.73 558.83L204.1 558.02L201.52 557.1L198.99 556.09L196.51 554.98L194.08 553.78L191.7 552.49L189.38 551.11L187.12 549.65L184.92 548.1L182.79 546.47L180.72 544.76L178.71 542.97L176.78 541.11L174.92 539.18L173.13 537.18L171.43 535.11L169.8 532.97L168.25 530.77L166.78 528.51L165.41 526.19L164.11 523.82L162.91 521.39L161.81 518.91L160.79 516.37L159.88 513.79L159.06 511.17L158.35 508.5L157.74 505.79L157.23 503.04L156.83 500.26L156.55 497.44L156.37 494.59L156.32 491.71L156.32 206.84L156.33 206.02L156.38 205.2L156.46 204.4L156.58 203.6L156.72 202.81L156.9 202.04L157.1 201.27L157.34 200.52L157.6 199.78L157.89 199.06L158.2 198.35L158.55 197.65L158.92 196.97L159.31 196.31L159.73 195.66L160.17 195.03L160.64 194.42L161.13 193.83L161.64 193.25L162.17 192.7L162.73 192.17L163.3 191.66L163.89 191.17L164.5 190.7L165.13 190.26L165.78 189.84L166.44 189.44L167.12 189.07L167.82 188.73L168.53 188.41L169.26 188.12L169.99 187.86L170.75 187.63L171.51 187.42L172.29 187.25L173.07 187.1L173.87 186.99L174.68 186.91L175.49 186.86L176.32 186.84L458.42 186.84L459.25 186.86L460.06 186.91ZM490.51 107.89L491.4 107.91L492.28 107.97L493.15 108.05L494.01 108.18L494.86 108.33L495.7 108.52L496.52 108.74L497.33 109L498.13 109.28L498.91 109.59L499.68 109.93L500.43 110.31L501.17 110.7L501.88 111.13L502.58 111.58L503.26 112.06L503.92 112.57L504.56 113.09L505.18 113.65L505.78 114.22L506.35 114.82L506.91 115.44L507.43 116.08L507.94 116.74L508.42 117.42L508.87 118.12L509.3 118.83L509.69 119.57L510.07 120.32L510.41 121.09L510.72 121.87L511 122.67L511.26 123.48L511.48 124.3L511.67 125.14L511.82 125.99L511.95 126.85L512.03 127.72L512.09 128.6L512.11 129.49L512.11 143.14L512.09 144.03L512.03 144.91L511.95 145.78L511.82 146.64L511.67 147.49L511.48 148.33L511.26 149.15L511 149.96L510.72 150.76L510.41 151.54L510.07 152.31L509.69 153.06L509.3 153.8L508.87 154.51L508.42 155.21L507.94 155.89L507.43 156.55L506.91 157.19L506.35 157.81L505.78 158.41L505.18 158.99L504.56 159.54L503.92 160.07L503.26 160.57L502.58 161.05L501.88 161.5L501.17 161.93L500.43 162.33L499.68 162.7L498.91 163.04L498.13 163.35L497.33 163.64L496.52 163.89L495.7 164.11L494.86 164.3L494.01 164.45L493.15 164.58L492.28 164.67L491.4 164.72L490.51 164.74L149.49 164.74L148.6 164.72L147.72 164.67L146.85 164.58L145.99 164.45L145.14 164.3L144.3 164.11L143.48 163.89L142.67 163.64L141.87 163.35L141.09 163.04L140.32 162.7L139.57 162.33L138.83 161.93L138.12 161.5L137.42 161.05L136.74 160.57L136.08 160.07L135.44 159.54L134.82 158.99L134.22 158.41L133.65 157.81L133.09 157.19L132.57 156.55L132.06 155.89L131.58 155.21L131.13 154.51L130.7 153.8L130.31 153.06L129.93 152.31L129.59 151.54L129.28 150.76L129 149.96L128.74 149.15L128.52 148.33L128.33 147.49L128.18 146.64L128.05 145.78L127.97 144.91L127.91 144.03L127.89 143.14L127.89 129.49L127.91 128.6L127.97 127.72L128.05 126.85L128.18 125.99L128.33 125.14L128.52 124.3L128.74 123.48L129 122.67L129.28 121.87L129.59 121.09L129.93 120.32L130.31 119.57L130.7 118.83L131.13 118.12L131.58 117.42L132.06 116.74L132.57 116.08L133.09 115.44L133.65 114.82L134.22 114.22L134.82 113.65L135.44 113.09L136.08 112.57L136.74 112.06L137.42 111.58L138.12 111.13L138.83 110.7L139.57 110.31L140.32 109.93L141.09 109.59L141.87 109.28L142.67 109L143.48 108.74L144.3 108.52L145.14 108.33L145.99 108.18L146.85 108.05L147.72 107.97L148.6 107.91L149.49 107.89L221.58 107.89L251.05 78.42L384.74 78.42L414.21 107.89L490.51 107.89Z" id="b1KwKx8Fh8"></path></defs><g><g><g><use xlink:href="#b1KwKx8Fh8" opacity="1" fill="#656565" fill-opacity="1"></use></g></g></g></svg>