<?xml version="1.0" encoding="UTF-8" standalone="no"?>
<!DOCTYPE svg PUBLIC "-//W3C//DTD SVG 1.1//EN" "http://www.w3.org/Graphics/SVG/1.1/DTD/svg11.dtd">
<svg version="1.1" xmlns="http://www.w3.org/2000/svg" xmlns:xlink="http://www.w3.org/1999/xlink" preserveAspectRatio="xMidYMid meet" viewBox="0 0 640 640" width="640" height="640"><defs><path d="M14.61 181.95C-0.55 197.11 -0.55 221.67 14.61 236.83C74.82 297.04 228.03 450.25 288.25 510.47C303.4 525.62 327.97 525.62 343.12 510.47C348.61 504.98 337.63 515.96 343.12 510.47C358.27 495.32 358.27 470.75 343.12 455.59C282.9 395.38 129.69 242.17 69.48 181.95C54.33 166.8 29.76 166.8 14.61 181.95C9.12 187.44 20.09 176.47 14.61 181.95Z" id="aBQOXfmMS"></path><path d="M628.64 181.95C643.79 197.11 643.79 221.67 628.64 236.83C568.42 297.04 415.21 450.25 354.99 510.47C339.84 525.62 315.27 525.62 300.12 510.47C294.63 504.98 305.61 515.96 300.12 510.47C284.97 495.32 284.97 470.75 300.12 455.59C360.34 395.38 513.55 242.17 573.76 181.95C588.91 166.8 613.48 166.8 628.64 181.95C634.12 187.44 623.15 176.47 628.64 181.95Z" id="a28heeTfX"></path></defs><g><g><g><use xlink:href="#aBQOXfmMS" opacity="1" fill="#656565" fill-opacity="1"></use></g><g><use xlink:href="#a28heeTfX" opacity="1" fill="#656565" fill-opacity="1"></use></g></g></g></svg>