<?xml version="1.0" encoding="UTF-8" standalone="no"?>
<!DOCTYPE svg PUBLIC "-//W3C//DTD SVG 1.1//EN" "http://www.w3.org/Graphics/SVG/1.1/DTD/svg11.dtd">
<svg version="1.1" xmlns="http://www.w3.org/2000/svg" xmlns:xlink="http://www.w3.org/1999/xlink" preserveAspectRatio="xMidYMid meet" viewBox="0 0 640 640" width="640" height="640"><defs><path d="M0 0L640 0L640 640L0 640L0 0Z" id="a9j0vj3UQg"></path><path d="M510.21 80.42L512.47 80.74L514.71 81.15L516.91 81.65L519.07 82.23L521.2 82.89L523.3 83.63L525.35 84.46L527.37 85.36L529.34 86.33L531.27 87.38L533.16 88.5L534.99 89.69L536.78 90.94L538.51 92.27L540.19 93.65L541.82 95.1L543.39 96.61L544.9 98.18L546.35 99.81L547.73 101.49L549.06 103.22L550.31 105.01L551.5 106.84L552.62 108.73L553.67 110.66L554.64 112.63L555.54 114.65L556.37 116.7L557.11 118.8L557.77 120.93L558.35 123.09L558.85 125.29L559.26 127.53L559.58 129.79L559.81 132.07L559.95 134.39L560 136.73L559.95 139.07L559.81 141.38L559.58 143.67L559.26 145.93L558.85 148.16L558.35 150.36L557.77 152.53L557.11 154.66L556.37 156.75L555.54 158.81L554.64 160.82L553.67 162.8L552.62 164.73L551.5 166.61L550.31 168.44L549.06 170.23L547.73 171.96L546.35 173.65L544.9 175.27L543.39 176.84L541.82 178.35L540.19 179.8L538.51 181.19L536.78 182.51L534.99 183.77L533.16 184.96L531.27 186.08L529.34 187.12L527.37 188.1L525.35 189L523.3 189.82L521.2 190.56L519.07 191.23L516.91 191.81L514.71 192.3L512.47 192.71L510.21 193.04L507.93 193.27L505.61 193.41L503.27 193.46L382.55 193.46L382.55 501.09L382.5 503.67L382.34 506.22L382.09 508.74L381.73 511.24L381.28 513.7L380.73 516.12L380.09 518.51L379.36 520.86L378.54 523.17L377.63 525.44L376.64 527.66L375.57 529.84L374.41 531.96L373.18 534.04L371.87 536.06L370.48 538.03L369.02 539.94L367.49 541.8L365.89 543.59L364.23 545.32L362.5 546.98L360.71 548.58L358.85 550.11L356.94 551.57L354.97 552.96L352.95 554.27L350.87 555.5L348.75 556.66L346.57 557.73L344.35 558.72L342.08 559.63L339.77 560.45L337.42 561.18L335.03 561.82L332.61 562.37L330.15 562.82L327.65 563.18L325.13 563.43L322.58 563.59L320 563.64L317.42 563.59L314.87 563.43L312.35 563.18L309.86 562.82L307.4 562.37L304.97 561.82L302.58 561.18L300.23 560.45L297.92 559.63L295.66 558.72L293.43 557.73L291.26 556.66L289.13 555.5L287.05 554.27L285.03 552.96L283.06 551.57L281.15 550.11L279.3 548.58L277.5 546.98L275.77 545.32L274.11 543.59L272.51 541.8L270.98 539.94L269.52 538.03L268.14 536.06L266.83 534.04L265.59 531.96L264.44 529.84L263.36 527.66L262.37 525.44L261.46 523.17L260.64 520.86L259.91 518.51L259.27 516.12L258.73 513.7L258.27 511.24L257.92 508.74L257.66 506.22L257.51 503.67L257.45 501.09L257.45 193.46L136.73 193.46L134.39 193.41L132.08 193.27L129.79 193.04L127.53 192.71L125.3 192.3L123.1 191.81L120.93 191.23L118.8 190.56L116.71 189.82L114.65 189L112.63 188.1L110.66 187.12L108.73 186.08L106.85 184.96L105.01 183.77L103.23 182.51L101.49 181.19L99.81 179.8L98.19 178.35L96.62 176.84L95.11 175.27L93.66 173.65L92.27 171.96L90.95 170.23L89.69 168.44L88.5 166.61L87.38 164.73L86.33 162.8L85.36 160.82L84.46 158.81L83.64 156.75L82.89 154.66L82.23 152.53L81.65 150.36L81.15 148.16L80.74 145.93L80.42 143.67L80.19 141.38L80.05 139.07L80 136.73L80.05 134.39L80.19 132.07L80.42 129.79L80.74 127.53L81.15 125.29L81.65 123.09L82.23 120.93L82.89 118.8L83.64 116.7L84.46 114.65L85.36 112.63L86.33 110.66L87.38 108.73L88.5 106.84L89.69 105.01L90.95 103.22L92.27 101.49L93.66 99.81L95.11 98.18L96.62 96.61L98.19 95.1L99.81 93.65L101.49 92.27L103.23 90.94L105.01 89.69L106.85 88.5L108.73 87.38L110.66 86.33L112.63 85.36L114.65 84.46L116.71 83.63L118.8 82.89L120.93 82.23L123.1 81.65L125.3 81.15L127.53 80.74L129.79 80.42L132.08 80.19L134.39 80.05L136.73 80L503.27 80L505.61 80.05L507.93 80.19L507.93 80.19L510.21 80.42Z" id="bbi8jSZGdq"></path></defs><g><g><g><use xlink:href="#a9j0vj3UQg" opacity="1" fill="#4285f4" fill-opacity="1"></use></g><g><use xlink:href="#bbi8jSZGdq" opacity="1" fill="#ffffff" fill-opacity="1"></use></g></g></g></svg>